<?xml version="1.0" encoding="UTF-8"?>
<svg fill="none" viewBox="0 0 15 13" xmlns="http://www.w3.org/2000/svg">
<path d="m3.2432 1.4451c-1.9e-4 0.38307-0.15255 0.75037-0.42355 1.0211-0.27101 0.27074-0.63847 0.42273-1.0215 0.42254-0.38306-1.9e-4 -0.75037-0.15255-1.0211-0.42356-0.27074-0.271-0.42272-0.63846-0.42253-1.0215 1.92e-4 -0.38307 0.15255-0.75037 0.42356-1.0211 0.271-0.27074 0.63846-0.42273 1.0215-0.42253 0.38307 1.9153e-4 0.75037 0.15255 1.0211 0.42355 0.27073 0.27101 0.42272 0.63846 0.42253 1.0215zm0.04333 2.5132h-2.8887v9.0417h2.8887v-9.0417zm4.5642 0h-2.8743v9.0417h2.8454v-4.7447c0-2.6432 3.4448-2.8887 3.4448 0v4.7447h2.8526v-5.7269c0-4.4559-5.0986-4.2898-6.2974-2.1016l0.02888-1.2133z" fill="#ccc"/>
</svg>
