<?xml version="1.0" encoding="UTF-8"?>
<svg fill="none" viewBox="0 0 14 13" xmlns="http://www.w3.org/2000/svg">
<path d="m6.8545 0c1.766 0 1.9864 0.0065 2.6793 0.039 0.69221 0.0325 1.1635 0.14105 1.5782 0.30225 0.429 0.1651 0.7904 0.3887 1.1518 0.74945 0.3305 0.32493 0.5863 0.71798 0.7494 1.1518 0.1606 0.41405 0.2698 0.88595 0.3023 1.5782 0.0305 0.6929 0.039 0.91325 0.039 2.6793s-0.0065 1.9864-0.039 2.6793c-0.0325 0.69225-0.1417 1.1635-0.3023 1.5782-0.1627 0.4341-0.4185 0.8272-0.7494 1.1518-0.325 0.3304-0.7181 0.5861-1.1518 0.7494-0.4141 0.1606-0.886 0.2698-1.5782 0.3023-0.6929 0.0305-0.91325 0.039-2.6793 0.039s-1.9864-0.0065-2.6793-0.039c-0.69225-0.0325-1.1635-0.1417-1.5782-0.3023-0.43399-0.1628-0.82711-0.4186-1.1518-0.7494-0.33058-0.3249-0.58634-0.7179-0.74945-1.1518-0.1612-0.4141-0.26975-0.88595-0.30225-1.5782-0.03055-0.6929-0.039-0.91325-0.039-2.6793s0.0065-1.9864 0.039-2.6793 0.14105-1.1635 0.30225-1.5782c0.16265-0.43408 0.41847-0.82724 0.74945-1.1518 0.32479-0.3307 0.71788-0.58648 1.1518-0.74945 0.4147-0.1612 0.8853-0.26975 1.5782-0.30225 0.6929-0.03055 0.91325-0.039 2.6793-0.039zm0 3.25c-0.86195 0-1.6886 0.34241-2.2981 0.9519-0.6095 0.6095-0.95191 1.4362-0.95191 2.2981s0.34241 1.6886 0.95191 2.2981c0.60949 0.60949 1.4361 0.9519 2.2981 0.9519 0.86196 0 1.6886-0.34241 2.2981-0.9519 0.60949-0.6095 0.95191-1.4362 0.95191-2.2981s-0.34242-1.6886-0.95191-2.2981c-0.60949-0.60949-1.4361-0.9519-2.2981-0.9519zm4.225-0.1625c0-0.21549-0.0856-0.42215-0.238-0.57452-0.1524-0.15238-0.359-0.23798-0.5745-0.23798s-0.42216 0.0856-0.57453 0.23798c-0.15238 0.15237-0.23798 0.35903-0.23798 0.57452s0.0856 0.42215 0.23798 0.57452c0.15237 0.15238 0.35903 0.23798 0.57453 0.23798s0.4221-0.0856 0.5745-0.23798c0.1524-0.15237 0.238-0.35903 0.238-0.57452zm-4.225 1.4625c0.51717 0 1.0132 0.20545 1.3789 0.57114 0.3657 0.3657 0.57114 0.86169 0.57114 1.3789s-0.20544 1.0132-0.57114 1.3789c-0.3657 0.36569-0.86169 0.57114-1.3789 0.57114s-1.0132-0.20545-1.3789-0.57114c-0.36569-0.3657-0.57114-0.86169-0.57114-1.3789s0.20545-1.0132 0.57114-1.3789c0.3657-0.36569 0.86169-0.57114 1.3789-0.57114z" fill="#ccc"/>
</svg>
