<?xml version="1.0" encoding="UTF-8"?>
<svg fill="none" viewBox="0 0 15 11" xmlns="http://www.w3.org/2000/svg">
<path d="m14.354 1.3058c-0.5067 0.22413-1.044 0.37133-1.5942 0.43672 0.5799-0.34683 1.014-0.89268 1.2212-1.5358-0.5442 0.32389-1.1409 0.55088-1.7628 0.67367-0.4177-0.44696-0.9714-0.74338-1.575-0.84319s-1.2232 0.0025926-1.7626 0.29128c-0.53938 0.28869-0.96827 0.7475-1.22 1.3051s-0.31219 1.1827-0.17198 1.7782c-1.1037-0.05532-2.1834-0.34213-3.169-0.84181-0.98565-0.49968-1.8552-1.2011-2.5522-2.0586-0.24671 0.42375-0.37635 0.90545-0.37566 1.3958 0 0.96239 0.48982 1.8126 1.2345 2.3104-0.4407-0.01387-0.8717-0.13288-1.2571-0.34712v0.03452c1.3e-4 0.64094 0.22192 1.2621 0.62777 1.7582 0.40584 0.49609 0.97076 0.83655 1.599 0.96367-0.4091 0.11086-0.83807 0.1272-1.2544 0.04779 0.17713 0.5517 0.52235 1.0342 0.98734 1.3799 0.46498 0.34573 1.0264 0.53739 1.6058 0.54815-0.57579 0.4522-1.235 0.78649-1.9401 0.98373-0.70506 0.19725-1.4421 0.2536-2.1689 0.16582 1.2688 0.81598 2.7458 1.2492 4.2544 1.2478 5.1059 0 7.8982-4.2298 7.8982-7.8982 0-0.11946-0.0034-0.24026-0.0087-0.3584 0.5435-0.39281 1.0126-0.87941 1.3852-1.4369l-7e-4 -6.6e-4z" fill="#76A713"/>
</svg>
