<svg width="16" height="13" fill="none" xmlns="http://www.w3.org/2000/svg"><path d="M15.988 1.543a6.577 6.577 0 0 1-1.884.516A3.291 3.291 0 0 0 15.547.244a6.555 6.555 0 0 1-2.083.796 3.28 3.28 0 0 0-5.59 2.992A9.314 9.314 0 0 1 1.113.604a3.28 3.28 0 0 0 1.015 4.38 3.27 3.27 0 0 1-1.486-.41v.04a3.283 3.283 0 0 0 2.632 3.218c-.483.13-.99.15-1.482.056a3.283 3.283 0 0 0 3.064 2.279A6.584 6.584 0 0 1 0 11.525 9.279 9.279 0 0 0 5.028 13c6.034 0 9.334-4.999 9.334-9.334 0-.141-.004-.284-.01-.424a6.663 6.663 0 0 0 1.637-1.698Z" fill="#76A713"/></svg>